<svg width="45" height="45" viewBox="0 0 45 45" fill="none" xmlns="http://www.w3.org/2000/svg">
<path d="M22.5002 0C10.0744 0 0.000976562 10.0742 0.000976562 22.4995C0.000976562 34.9249 10.0744 45 22.5002 45C34.9261 45 45.0007 34.9255 45.0007 22.4995C45.0007 10.0736 34.9261 0 22.5002 0ZM33.1961 16.1918L31.0591 18.3288L26.7089 13.979L25.0586 15.6293L29.4088 19.9794L18.739 30.6483L14.3891 26.2989L12.7388 27.9492L17.0887 32.299L16.0255 33.3623L16.0052 33.342C15.8873 33.5361 15.6956 33.6777 15.4679 33.7283L11.4115 34.6328C11.3507 34.6464 11.2889 34.653 11.2279 34.653C11.0065 34.653 10.7914 34.5659 10.6319 34.406C10.4273 34.2021 10.3421 33.9076 10.4051 33.6255L11.3092 29.5702C11.3602 29.3427 11.5021 29.1506 11.6959 29.0329L11.6753 29.0124L28.8458 11.8412C29.0975 11.5899 29.5064 11.5899 29.7581 11.8419L33.1964 15.2795C33.4481 15.5312 33.4481 15.9401 33.1961 16.1918Z" fill="#FF9900"/>
</svg>
