<svg width="686" height="380" viewBox="0 0 686 380" fill="none" xmlns="http://www.w3.org/2000/svg">
<g clip-path="url(#clip0_6_75)">
<path d="M0 355H686" stroke="#EBEDF0"/>
<path d="M0 299H686" stroke="#EBEDF0"/>
<path d="M0 243H686" stroke="#EBEDF0"/>
<path d="M0 187H686" stroke="#EBEDF0"/>
<path d="M0 131H686" stroke="#EBEDF0"/>
<path d="M0 75H686" stroke="#EBEDF0"/>
<path d="M0 19H686" stroke="#EBEDF0"/>
<path d="M414 134L415 354.998" stroke="#EBEDF0"/>
<g clip-path="url(#clip1_6_75)">
<path d="M0.480352 374.31C0.480352 373.163 0.667018 372.27 1.04035 371.63C1.41368 370.983 2.06702 370.66 3.00035 370.66C3.92702 370.66 4.57702 370.983 4.95035 371.63C5.32368 372.27 5.51035 373.163 5.51035 374.31C5.51035 375.477 5.32368 376.383 4.95035 377.03C4.57702 377.677 3.92702 378 3.00035 378C2.06702 378 1.41368 377.677 1.04035 377.03C0.667018 376.383 0.480352 375.477 0.480352 374.31ZM4.61035 374.31C4.61035 373.73 4.57035 373.24 4.49035 372.84C4.41702 372.433 4.26035 372.107 4.02035 371.86C3.78702 371.613 3.44702 371.49 3.00035 371.49C2.54702 371.49 2.20035 371.613 1.96035 371.86C1.72702 372.107 1.57035 372.433 1.49035 372.84C1.41702 373.24 1.38035 373.73 1.38035 374.31C1.38035 374.91 1.41702 375.413 1.49035 375.82C1.57035 376.227 1.72702 376.553 1.96035 376.8C2.20035 377.047 2.54702 377.17 3.00035 377.17C3.44702 377.17 3.78702 377.047 4.02035 376.8C4.26035 376.553 4.41702 376.227 4.49035 375.82C4.57035 375.413 4.61035 374.91 4.61035 374.31Z" fill="#9FA2B4"/>
<path d="M27.7784 371.6V370.77H29.6584V378H28.7384V371.6H27.7784Z" fill="#9FA2B4"/>
<path d="M52.634 377.27C53.4807 376.59 54.144 376.033 54.624 375.6C55.104 375.16 55.5074 374.703 55.834 374.23C56.1674 373.75 56.334 373.28 56.334 372.82C56.334 372.387 56.2274 372.047 56.014 371.8C55.8074 371.547 55.4707 371.42 55.004 371.42C54.5507 371.42 54.1974 371.563 53.944 371.85C53.6974 372.13 53.564 372.507 53.544 372.98H52.664C52.6907 372.233 52.9174 371.657 53.344 371.25C53.7707 370.843 54.3207 370.64 54.994 370.64C55.6807 370.64 56.224 370.83 56.624 371.21C57.0307 371.59 57.234 372.113 57.234 372.78C57.234 373.333 57.0674 373.873 56.734 374.4C56.4074 374.92 56.034 375.38 55.614 375.78C55.194 376.173 54.6574 376.633 54.004 377.16H57.444V377.92H52.634V377.27Z" fill="#9FA2B4"/>
<path d="M78.6557 372.59C78.7023 371.977 78.939 371.497 79.3657 371.15C79.7923 370.803 80.3457 370.63 81.0257 370.63C81.479 370.63 81.869 370.713 82.1957 370.88C82.529 371.04 82.779 371.26 82.9457 371.54C83.119 371.82 83.2057 372.137 83.2057 372.49C83.2057 372.903 83.0857 373.26 82.8457 373.56C82.6123 373.86 82.3057 374.053 81.9257 374.14V374.19C82.359 374.297 82.7023 374.507 82.9557 374.82C83.209 375.133 83.3357 375.543 83.3357 376.05C83.3357 376.43 83.249 376.773 83.0757 377.08C82.9023 377.38 82.6423 377.617 82.2957 377.79C81.949 377.963 81.5323 378.05 81.0457 378.05C80.339 378.05 79.759 377.867 79.3057 377.5C78.8523 377.127 78.599 376.6 78.5457 375.92H79.4257C79.4723 376.32 79.6357 376.647 79.9157 376.9C80.1957 377.153 80.569 377.28 81.0357 377.28C81.5023 377.28 81.8557 377.16 82.0957 376.92C82.3423 376.673 82.4657 376.357 82.4657 375.97C82.4657 375.47 82.299 375.11 81.9657 374.89C81.6323 374.67 81.129 374.56 80.4557 374.56H80.2257V373.8H80.4657C81.079 373.793 81.5423 373.693 81.8557 373.5C82.169 373.3 82.3257 372.993 82.3257 372.58C82.3257 372.227 82.209 371.943 81.9757 371.73C81.749 371.517 81.4223 371.41 80.9957 371.41C80.5823 371.41 80.249 371.517 79.9957 371.73C79.7423 371.943 79.5923 372.23 79.5457 372.59H78.6557Z" fill="#9FA2B4"/>
<path d="M104.255 376.39V375.7L107.765 370.84H108.855V375.6H109.855V376.39H108.855V378H107.955V376.39H104.255ZM107.995 371.79L105.305 375.6H107.995V371.79Z" fill="#9FA2B4"/>
<path d="M135.09 371.56H131.58V373.84C131.734 373.627 131.96 373.453 132.26 373.32C132.56 373.18 132.884 373.11 133.23 373.11C133.784 373.11 134.234 373.227 134.58 373.46C134.927 373.687 135.174 373.983 135.32 374.35C135.474 374.71 135.55 375.093 135.55 375.5C135.55 375.98 135.46 376.41 135.28 376.79C135.1 377.17 134.824 377.47 134.45 377.69C134.084 377.91 133.627 378.02 133.08 378.02C132.38 378.02 131.814 377.84 131.38 377.48C130.947 377.12 130.684 376.64 130.59 376.04H131.48C131.567 376.42 131.75 376.717 132.03 376.93C132.31 377.143 132.664 377.25 133.09 377.25C133.617 377.25 134.014 377.093 134.28 376.78C134.547 376.46 134.68 376.04 134.68 375.52C134.68 375 134.547 374.6 134.28 374.32C134.014 374.033 133.62 373.89 133.1 373.89C132.747 373.89 132.437 373.977 132.17 374.15C131.91 374.317 131.72 374.547 131.6 374.84H130.74V370.76H135.09V371.56Z" fill="#9FA2B4"/>
<path d="M160.476 372.49C160.33 371.75 159.873 371.38 159.106 371.38C158.513 371.38 158.07 371.61 157.776 372.07C157.483 372.523 157.34 373.273 157.346 374.32C157.5 373.973 157.753 373.703 158.106 373.51C158.466 373.31 158.866 373.21 159.306 373.21C159.993 373.21 160.54 373.423 160.946 373.85C161.36 374.277 161.566 374.867 161.566 375.62C161.566 376.073 161.476 376.48 161.296 376.84C161.123 377.2 160.856 377.487 160.496 377.7C160.143 377.913 159.713 378.02 159.206 378.02C158.52 378.02 157.983 377.867 157.596 377.56C157.21 377.253 156.94 376.83 156.786 376.29C156.633 375.75 156.556 375.083 156.556 374.29C156.556 371.843 157.41 370.62 159.116 370.62C159.77 370.62 160.283 370.797 160.656 371.15C161.03 371.503 161.25 371.95 161.316 372.49H160.476ZM159.116 373.98C158.83 373.98 158.56 374.04 158.306 374.16C158.053 374.273 157.846 374.45 157.686 374.69C157.533 374.923 157.456 375.21 157.456 375.55C157.456 376.057 157.603 376.47 157.896 376.79C158.19 377.103 158.61 377.26 159.156 377.26C159.623 377.26 159.993 377.117 160.266 376.83C160.546 376.537 160.686 376.143 160.686 375.65C160.686 375.13 160.553 374.723 160.286 374.43C160.02 374.13 159.63 373.98 159.116 373.98Z" fill="#9FA2B4"/>
<path d="M187.341 371.48L184.561 378H183.641L186.461 371.57H182.601V370.79H187.341V371.48Z" fill="#9FA2B4"/>
<path d="M209.786 374.24C209.412 374.093 209.126 373.88 208.926 373.6C208.726 373.32 208.626 372.98 208.626 372.58C208.626 372.22 208.716 371.897 208.896 371.61C209.076 371.317 209.342 371.087 209.696 370.92C210.056 370.747 210.489 370.66 210.996 370.66C211.502 370.66 211.932 370.747 212.286 370.92C212.646 371.087 212.916 371.317 213.096 371.61C213.282 371.897 213.376 372.22 213.376 372.58C213.376 372.967 213.272 373.307 213.066 373.6C212.859 373.887 212.576 374.1 212.216 374.24C212.629 374.367 212.956 374.59 213.196 374.91C213.442 375.223 213.566 375.603 213.566 376.05C213.566 376.483 213.459 376.863 213.246 377.19C213.032 377.51 212.729 377.76 212.336 377.94C211.949 378.113 211.502 378.2 210.996 378.2C210.489 378.2 210.042 378.113 209.656 377.94C209.276 377.76 208.979 377.51 208.766 377.19C208.552 376.863 208.446 376.483 208.446 376.05C208.446 375.603 208.566 375.22 208.806 374.9C209.046 374.58 209.372 374.36 209.786 374.24ZM212.496 372.69C212.496 372.283 212.362 371.97 212.096 371.75C211.829 371.53 211.462 371.42 210.996 371.42C210.536 371.42 210.172 371.53 209.906 371.75C209.639 371.97 209.506 372.287 209.506 372.7C209.506 373.073 209.642 373.373 209.916 373.6C210.196 373.827 210.556 373.94 210.996 373.94C211.442 373.94 211.802 373.827 212.076 373.6C212.356 373.367 212.496 373.063 212.496 372.69ZM210.996 374.64C210.502 374.64 210.099 374.757 209.786 374.99C209.472 375.217 209.316 375.56 209.316 376.02C209.316 376.447 209.466 376.79 209.766 377.05C210.072 377.31 210.482 377.44 210.996 377.44C211.509 377.44 211.916 377.31 212.216 377.05C212.516 376.79 212.666 376.447 212.666 376.02C212.666 375.573 212.512 375.233 212.206 375C211.899 374.76 211.496 374.64 210.996 374.64Z" fill="#9FA2B4"/>
<path d="M235.641 376.06C235.707 376.44 235.861 376.733 236.101 376.94C236.347 377.147 236.677 377.25 237.091 377.25C237.644 377.25 238.051 377.033 238.311 376.6C238.577 376.167 238.704 375.437 238.691 374.41C238.551 374.71 238.317 374.947 237.991 375.12C237.664 375.287 237.301 375.37 236.901 375.37C236.454 375.37 236.054 375.28 235.701 375.1C235.354 374.913 235.081 374.643 234.881 374.29C234.681 373.937 234.581 373.51 234.581 373.01C234.581 372.297 234.787 371.723 235.201 371.29C235.614 370.85 236.201 370.63 236.961 370.63C237.894 370.63 238.547 370.933 238.921 371.54C239.301 372.147 239.491 373.05 239.491 374.25C239.491 375.09 239.414 375.783 239.261 376.33C239.114 376.877 238.861 377.293 238.501 377.58C238.147 377.867 237.661 378.01 237.041 378.01C236.361 378.01 235.831 377.827 235.451 377.46C235.071 377.093 234.854 376.627 234.801 376.06H235.641ZM237.051 374.6C237.497 374.6 237.864 374.463 238.151 374.19C238.437 373.91 238.581 373.533 238.581 373.06C238.581 372.56 238.441 372.157 238.161 371.85C237.881 371.543 237.487 371.39 236.981 371.39C236.514 371.39 236.141 371.537 235.861 371.83C235.587 372.123 235.451 372.51 235.451 372.99C235.451 373.477 235.587 373.867 235.861 374.16C236.134 374.453 236.531 374.6 237.051 374.6Z" fill="#9FA2B4"/>
<path d="M262.589 371.6V370.77H264.469V378H263.549V371.6H262.589ZM266.132 374.31C266.132 373.163 266.319 372.27 266.692 371.63C267.065 370.983 267.719 370.66 268.652 370.66C269.579 370.66 270.229 370.983 270.602 371.63C270.975 372.27 271.162 373.163 271.162 374.31C271.162 375.477 270.975 376.383 270.602 377.03C270.229 377.677 269.579 378 268.652 378C267.719 378 267.065 377.677 266.692 377.03C266.319 376.383 266.132 375.477 266.132 374.31ZM270.262 374.31C270.262 373.73 270.222 373.24 270.142 372.84C270.069 372.433 269.912 372.107 269.672 371.86C269.439 371.613 269.099 371.49 268.652 371.49C268.199 371.49 267.852 371.613 267.612 371.86C267.379 372.107 267.222 372.433 267.142 372.84C267.069 373.24 267.032 373.73 267.032 374.31C267.032 374.91 267.069 375.413 267.142 375.82C267.222 376.227 267.379 376.553 267.612 376.8C267.852 377.047 268.199 377.17 268.652 377.17C269.099 377.17 269.439 377.047 269.672 376.8C269.912 376.553 270.069 376.227 270.142 375.82C270.222 375.413 270.262 374.91 270.262 374.31Z" fill="#9FA2B4"/>
<path d="M298.127 371.6V370.77H300.007V378H299.087V371.6H298.127ZM301.43 371.6V370.77H303.31V378H302.39V371.6H301.43Z" fill="#9FA2B4"/>
<path d="M330.852 371.6V370.77H332.732V378H331.812V371.6H330.852ZM334.286 377.27C335.132 376.59 335.796 376.033 336.276 375.6C336.756 375.16 337.159 374.703 337.486 374.23C337.819 373.75 337.986 373.28 337.986 372.82C337.986 372.387 337.879 372.047 337.666 371.8C337.459 371.547 337.122 371.42 336.656 371.42C336.202 371.42 335.849 371.563 335.596 371.85C335.349 372.13 335.216 372.507 335.196 372.98H334.316C334.342 372.233 334.569 371.657 334.996 371.25C335.422 370.843 335.972 370.64 336.646 370.64C337.332 370.64 337.876 370.83 338.276 371.21C338.682 371.59 338.886 372.113 338.886 372.78C338.886 373.333 338.719 373.873 338.386 374.4C338.059 374.92 337.686 375.38 337.266 375.78C336.846 376.173 336.309 376.633 335.656 377.16H339.096V377.92H334.286V377.27Z" fill="#9FA2B4"/>
<path d="M364.784 371.6V370.77H366.664V378H365.744V371.6H364.784ZM368.307 372.59C368.354 371.977 368.591 371.497 369.017 371.15C369.444 370.803 369.997 370.63 370.677 370.63C371.131 370.63 371.521 370.713 371.847 370.88C372.181 371.04 372.431 371.26 372.597 371.54C372.771 371.82 372.857 372.137 372.857 372.49C372.857 372.903 372.737 373.26 372.497 373.56C372.264 373.86 371.957 374.053 371.577 374.14V374.19C372.011 374.297 372.354 374.507 372.607 374.82C372.861 375.133 372.987 375.543 372.987 376.05C372.987 376.43 372.901 376.773 372.727 377.08C372.554 377.38 372.294 377.617 371.947 377.79C371.601 377.963 371.184 378.05 370.697 378.05C369.991 378.05 369.411 377.867 368.957 377.5C368.504 377.127 368.251 376.6 368.197 375.92H369.077C369.124 376.32 369.287 376.647 369.567 376.9C369.847 377.153 370.221 377.28 370.687 377.28C371.154 377.28 371.507 377.16 371.747 376.92C371.994 376.673 372.117 376.357 372.117 375.97C372.117 375.47 371.951 375.11 371.617 374.89C371.284 374.67 370.781 374.56 370.107 374.56H369.877V373.8H370.117C370.731 373.793 371.194 373.693 371.507 373.5C371.821 373.3 371.977 372.993 371.977 372.58C371.977 372.227 371.861 371.943 371.627 371.73C371.401 371.517 371.074 371.41 370.647 371.41C370.234 371.41 369.901 371.517 369.647 371.73C369.394 371.943 369.244 372.23 369.197 372.59H368.307Z" fill="#9FA2B4"/>
<path d="M398.584 371.6V370.77H400.464V378H399.544V371.6H398.584ZM401.907 376.39V375.7L405.417 370.84H406.507V375.6H407.507V376.39H406.507V378H405.607V376.39H401.907ZM405.647 371.79L402.957 375.6H405.647V371.79Z" fill="#9FA2B4"/>
<path d="M432.589 371.6V370.77H434.469V378H433.549V371.6H432.589ZM440.742 371.56H437.232V373.84C437.385 373.627 437.612 373.453 437.912 373.32C438.212 373.18 438.535 373.11 438.882 373.11C439.435 373.11 439.885 373.227 440.232 373.46C440.579 373.687 440.825 373.983 440.972 374.35C441.125 374.71 441.202 375.093 441.202 375.5C441.202 375.98 441.112 376.41 440.932 376.79C440.752 377.17 440.475 377.47 440.102 377.69C439.735 377.91 439.279 378.02 438.732 378.02C438.032 378.02 437.465 377.84 437.032 377.48C436.599 377.12 436.335 376.64 436.242 376.04H437.132C437.219 376.42 437.402 376.717 437.682 376.93C437.962 377.143 438.315 377.25 438.742 377.25C439.269 377.25 439.665 377.093 439.932 376.78C440.199 376.46 440.332 376.04 440.332 375.52C440.332 375 440.199 374.6 439.932 374.32C439.665 374.033 439.272 373.89 438.752 373.89C438.399 373.89 438.089 373.977 437.822 374.15C437.562 374.317 437.372 374.547 437.252 374.84H436.392V370.76H440.742V371.56Z" fill="#9FA2B4"/>
<path d="M466.555 371.6V370.77H468.435V378H467.515V371.6H466.555ZM474.128 372.49C473.981 371.75 473.524 371.38 472.758 371.38C472.164 371.38 471.721 371.61 471.428 372.07C471.134 372.523 470.991 373.273 470.998 374.32C471.151 373.973 471.404 373.703 471.758 373.51C472.118 373.31 472.518 373.21 472.958 373.21C473.644 373.21 474.191 373.423 474.598 373.85C475.011 374.277 475.218 374.867 475.218 375.62C475.218 376.073 475.128 376.48 474.948 376.84C474.774 377.2 474.508 377.487 474.148 377.7C473.794 377.913 473.364 378.02 472.858 378.02C472.171 378.02 471.634 377.867 471.248 377.56C470.861 377.253 470.591 376.83 470.438 376.29C470.284 375.75 470.208 375.083 470.208 374.29C470.208 371.843 471.061 370.62 472.768 370.62C473.421 370.62 473.934 370.797 474.308 371.15C474.681 371.503 474.901 371.95 474.968 372.49H474.128ZM472.768 373.98C472.481 373.98 472.211 374.04 471.958 374.16C471.704 374.273 471.498 374.45 471.338 374.69C471.184 374.923 471.108 375.21 471.108 375.55C471.108 376.057 471.254 376.47 471.548 376.79C471.841 377.103 472.261 377.26 472.808 377.26C473.274 377.26 473.644 377.117 473.918 376.83C474.198 376.537 474.338 376.143 474.338 375.65C474.338 375.13 474.204 374.723 473.938 374.43C473.671 374.13 473.281 373.98 472.768 373.98Z" fill="#9FA2B4"/>
<path d="M500.999 371.6V370.77H502.879V378H501.959V371.6H500.999ZM508.992 371.48L506.212 378H505.292L508.112 371.57H504.252V370.79H508.992V371.48Z" fill="#9FA2B4"/>
<path d="M534.574 371.6V370.77H536.454V378H535.534V371.6H534.574ZM539.437 374.24C539.064 374.093 538.777 373.88 538.577 373.6C538.377 373.32 538.277 372.98 538.277 372.58C538.277 372.22 538.367 371.897 538.547 371.61C538.727 371.317 538.994 371.087 539.347 370.92C539.707 370.747 540.141 370.66 540.647 370.66C541.154 370.66 541.584 370.747 541.937 370.92C542.297 371.087 542.567 371.317 542.747 371.61C542.934 371.897 543.027 372.22 543.027 372.58C543.027 372.967 542.924 373.307 542.717 373.6C542.511 373.887 542.227 374.1 541.867 374.24C542.281 374.367 542.607 374.59 542.847 374.91C543.094 375.223 543.217 375.603 543.217 376.05C543.217 376.483 543.111 376.863 542.897 377.19C542.684 377.51 542.381 377.76 541.987 377.94C541.601 378.113 541.154 378.2 540.647 378.2C540.141 378.2 539.694 378.113 539.307 377.94C538.927 377.76 538.631 377.51 538.417 377.19C538.204 376.863 538.097 376.483 538.097 376.05C538.097 375.603 538.217 375.22 538.457 374.9C538.697 374.58 539.024 374.36 539.437 374.24ZM542.147 372.69C542.147 372.283 542.014 371.97 541.747 371.75C541.481 371.53 541.114 371.42 540.647 371.42C540.187 371.42 539.824 371.53 539.557 371.75C539.291 371.97 539.157 372.287 539.157 372.7C539.157 373.073 539.294 373.373 539.567 373.6C539.847 373.827 540.207 373.94 540.647 373.94C541.094 373.94 541.454 373.827 541.727 373.6C542.007 373.367 542.147 373.063 542.147 372.69ZM540.647 374.64C540.154 374.64 539.751 374.757 539.437 374.99C539.124 375.217 538.967 375.56 538.967 376.02C538.967 376.447 539.117 376.79 539.417 377.05C539.724 377.31 540.134 377.44 540.647 377.44C541.161 377.44 541.567 377.31 541.867 377.05C542.167 376.79 542.317 376.447 542.317 376.02C542.317 375.573 542.164 375.233 541.857 375C541.551 374.76 541.147 374.64 540.647 374.64Z" fill="#9FA2B4"/>
<path d="M568.579 371.6V370.77H570.459V378H569.539V371.6H568.579ZM573.292 376.06C573.359 376.44 573.512 376.733 573.752 376.94C573.999 377.147 574.329 377.25 574.742 377.25C575.295 377.25 575.702 377.033 575.962 376.6C576.229 376.167 576.355 375.437 576.342 374.41C576.202 374.71 575.969 374.947 575.642 375.12C575.315 375.287 574.952 375.37 574.552 375.37C574.105 375.37 573.705 375.28 573.352 375.1C573.005 374.913 572.732 374.643 572.532 374.29C572.332 373.937 572.232 373.51 572.232 373.01C572.232 372.297 572.439 371.723 572.852 371.29C573.265 370.85 573.852 370.63 574.612 370.63C575.545 370.63 576.199 370.933 576.572 371.54C576.952 372.147 577.142 373.05 577.142 374.25C577.142 375.09 577.065 375.783 576.912 376.33C576.765 376.877 576.512 377.293 576.152 377.58C575.799 377.867 575.312 378.01 574.692 378.01C574.012 378.01 573.482 377.827 573.102 377.46C572.722 377.093 572.505 376.627 572.452 376.06H573.292ZM574.702 374.6C575.149 374.6 575.515 374.463 575.802 374.19C576.089 373.91 576.232 373.533 576.232 373.06C576.232 372.56 576.092 372.157 575.812 371.85C575.532 371.543 575.139 371.39 574.632 371.39C574.165 371.39 573.792 371.537 573.512 371.83C573.239 372.123 573.102 372.51 573.102 372.99C573.102 373.477 573.239 373.867 573.512 374.16C573.785 374.453 574.182 374.6 574.702 374.6Z" fill="#9FA2B4"/>
<path d="M601.444 377.27C602.291 376.59 602.954 376.033 603.434 375.6C603.914 375.16 604.318 374.703 604.644 374.23C604.978 373.75 605.144 373.28 605.144 372.82C605.144 372.387 605.038 372.047 604.824 371.8C604.618 371.547 604.281 371.42 603.814 371.42C603.361 371.42 603.008 371.563 602.754 371.85C602.508 372.13 602.374 372.507 602.354 372.98H601.474C601.501 372.233 601.728 371.657 602.154 371.25C602.581 370.843 603.131 370.64 603.804 370.64C604.491 370.64 605.034 370.83 605.434 371.21C605.841 371.59 606.044 372.113 606.044 372.78C606.044 373.333 605.878 373.873 605.544 374.4C605.218 374.92 604.844 375.38 604.424 375.78C604.004 376.173 603.468 376.633 602.814 377.16H606.254V377.92H601.444V377.27ZM607.406 374.31C607.406 373.163 607.593 372.27 607.966 371.63C608.34 370.983 608.993 370.66 609.926 370.66C610.853 370.66 611.503 370.983 611.876 371.63C612.25 372.27 612.436 373.163 612.436 374.31C612.436 375.477 612.25 376.383 611.876 377.03C611.503 377.677 610.853 378 609.926 378C608.993 378 608.34 377.677 607.966 377.03C607.593 376.383 607.406 375.477 607.406 374.31ZM611.536 374.31C611.536 373.73 611.496 373.24 611.416 372.84C611.343 372.433 611.186 372.107 610.946 371.86C610.713 371.613 610.373 371.49 609.926 371.49C609.473 371.49 609.126 371.613 608.886 371.86C608.653 372.107 608.496 372.433 608.416 372.84C608.343 373.24 608.306 373.73 608.306 374.31C608.306 374.91 608.343 375.413 608.416 375.82C608.496 376.227 608.653 376.553 608.886 376.8C609.126 377.047 609.473 377.17 609.926 377.17C610.373 377.17 610.713 377.047 610.946 376.8C611.186 376.553 611.343 376.227 611.416 375.82C611.496 375.413 611.536 374.91 611.536 374.31Z" fill="#9FA2B4"/>
<path d="M636.982 377.27C637.829 376.59 638.492 376.033 638.972 375.6C639.452 375.16 639.856 374.703 640.182 374.23C640.516 373.75 640.682 373.28 640.682 372.82C640.682 372.387 640.576 372.047 640.362 371.8C640.156 371.547 639.819 371.42 639.352 371.42C638.899 371.42 638.546 371.563 638.292 371.85C638.046 372.13 637.912 372.507 637.892 372.98H637.012C637.039 372.233 637.266 371.657 637.692 371.25C638.119 370.843 638.669 370.64 639.342 370.64C640.029 370.64 640.572 370.83 640.972 371.21C641.379 371.59 641.582 372.113 641.582 372.78C641.582 373.333 641.416 373.873 641.082 374.4C640.756 374.92 640.382 375.38 639.962 375.78C639.542 376.173 639.006 376.633 638.352 377.16H641.792V377.92H636.982V377.27ZM642.704 371.6V370.77H644.584V378H643.664V371.6H642.704Z" fill="#9FA2B4"/>
<path d="M669.708 377.27C670.555 376.59 671.218 376.033 671.698 375.6C672.178 375.16 672.581 374.703 672.908 374.23C673.241 373.75 673.408 373.28 673.408 372.82C673.408 372.387 673.301 372.047 673.088 371.8C672.881 371.547 672.545 371.42 672.078 371.42C671.625 371.42 671.271 371.563 671.018 371.85C670.771 372.13 670.638 372.507 670.618 372.98H669.738C669.765 372.233 669.991 371.657 670.418 371.25C670.845 370.843 671.395 370.64 672.068 370.64C672.755 370.64 673.298 370.83 673.698 371.21C674.105 371.59 674.308 372.113 674.308 372.78C674.308 373.333 674.141 373.873 673.808 374.4C673.481 374.92 673.108 375.38 672.688 375.78C672.268 376.173 671.731 376.633 671.078 377.16H674.518V377.92H669.708V377.27ZM675.56 377.27C676.407 376.59 677.07 376.033 677.55 375.6C678.03 375.16 678.433 374.703 678.76 374.23C679.093 373.75 679.26 373.28 679.26 372.82C679.26 372.387 679.153 372.047 678.94 371.8C678.733 371.547 678.397 371.42 677.93 371.42C677.477 371.42 677.123 371.563 676.87 371.85C676.623 372.13 676.49 372.507 676.47 372.98H675.59C675.617 372.233 675.843 371.657 676.27 371.25C676.697 370.843 677.247 370.64 677.92 370.64C678.607 370.64 679.15 370.83 679.55 371.21C679.957 371.59 680.16 372.113 680.16 372.78C680.16 373.333 679.993 373.873 679.66 374.4C679.333 374.92 678.96 375.38 678.54 375.78C678.12 376.173 677.583 376.633 676.93 377.16H680.37V377.92H675.56V377.27Z" fill="#9FA2B4"/>
</g>
<path d="M680.341 343.31C680.341 342.163 680.527 341.27 680.901 340.63C681.274 339.983 681.927 339.66 682.861 339.66C683.787 339.66 684.437 339.983 684.811 340.63C685.184 341.27 685.371 342.163 685.371 343.31C685.371 344.477 685.184 345.383 684.811 346.03C684.437 346.677 683.787 347 682.861 347C681.927 347 681.274 346.677 680.901 346.03C680.527 345.383 680.341 344.477 680.341 343.31ZM684.471 343.31C684.471 342.73 684.431 342.24 684.351 341.84C684.277 341.433 684.121 341.107 683.881 340.86C683.647 340.613 683.307 340.49 682.861 340.49C682.407 340.49 682.061 340.613 681.821 340.86C681.587 341.107 681.431 341.433 681.351 341.84C681.277 342.24 681.241 342.73 681.241 343.31C681.241 343.91 681.277 344.413 681.351 344.82C681.431 345.227 681.587 345.553 681.821 345.8C682.061 346.047 682.407 346.17 682.861 346.17C683.307 346.17 683.647 346.047 683.881 345.8C684.121 345.553 684.277 345.227 684.351 344.82C684.431 344.413 684.471 343.91 684.471 343.31Z" fill="#9FA2B4"/>
<path d="M676.798 284.6V283.77H678.678V291H677.758V284.6H676.798ZM680.341 287.31C680.341 286.163 680.527 285.27 680.901 284.63C681.274 283.983 681.927 283.66 682.861 283.66C683.787 283.66 684.437 283.983 684.811 284.63C685.184 285.27 685.371 286.163 685.371 287.31C685.371 288.477 685.184 289.383 684.811 290.03C684.437 290.677 683.787 291 682.861 291C681.927 291 681.274 290.677 680.901 290.03C680.527 289.383 680.341 288.477 680.341 287.31ZM684.471 287.31C684.471 286.73 684.431 286.24 684.351 285.84C684.277 285.433 684.121 285.107 683.881 284.86C683.647 284.613 683.307 284.49 682.861 284.49C682.407 284.49 682.061 284.613 681.821 284.86C681.587 285.107 681.431 285.433 681.351 285.84C681.277 286.24 681.241 286.73 681.241 287.31C681.241 287.91 681.277 288.413 681.351 288.82C681.431 289.227 681.587 289.553 681.821 289.8C682.061 290.047 682.407 290.17 682.861 290.17C683.307 290.17 683.647 290.047 683.881 289.8C684.121 289.553 684.277 289.227 684.351 288.82C684.431 288.413 684.471 287.91 684.471 287.31Z" fill="#9FA2B4"/>
<path d="M674.379 234.27C675.225 233.59 675.889 233.033 676.369 232.6C676.849 232.16 677.252 231.703 677.579 231.23C677.912 230.75 678.079 230.28 678.079 229.82C678.079 229.387 677.972 229.047 677.759 228.8C677.552 228.547 677.215 228.42 676.749 228.42C676.295 228.42 675.942 228.563 675.689 228.85C675.442 229.13 675.309 229.507 675.289 229.98H674.409C674.435 229.233 674.662 228.657 675.089 228.25C675.515 227.843 676.065 227.64 676.739 227.64C677.425 227.64 677.969 227.83 678.369 228.21C678.775 228.59 678.979 229.113 678.979 229.78C678.979 230.333 678.812 230.873 678.479 231.4C678.152 231.92 677.779 232.38 677.359 232.78C676.939 233.173 676.402 233.633 675.749 234.16H679.189V234.92H674.379V234.27ZM680.341 231.31C680.341 230.163 680.527 229.27 680.901 228.63C681.274 227.983 681.927 227.66 682.861 227.66C683.787 227.66 684.437 227.983 684.811 228.63C685.184 229.27 685.371 230.163 685.371 231.31C685.371 232.477 685.184 233.383 684.811 234.03C684.437 234.677 683.787 235 682.861 235C681.927 235 681.274 234.677 680.901 234.03C680.527 233.383 680.341 232.477 680.341 231.31ZM684.471 231.31C684.471 230.73 684.431 230.24 684.351 229.84C684.277 229.433 684.121 229.107 683.881 228.86C683.647 228.613 683.307 228.49 682.861 228.49C682.407 228.49 682.061 228.613 681.821 228.86C681.587 229.107 681.431 229.433 681.351 229.84C681.277 230.24 681.241 230.73 681.241 231.31C681.241 231.91 681.277 232.413 681.351 232.82C681.431 233.227 681.587 233.553 681.821 233.8C682.061 234.047 682.407 234.17 682.861 234.17C683.307 234.17 683.647 234.047 683.881 233.8C684.121 233.553 684.277 233.227 684.351 232.82C684.431 232.413 684.471 231.91 684.471 231.31Z" fill="#9FA2B4"/>
<path d="M674.332 173.59C674.379 172.977 674.615 172.497 675.042 172.15C675.469 171.803 676.022 171.63 676.702 171.63C677.155 171.63 677.545 171.713 677.872 171.88C678.205 172.04 678.455 172.26 678.622 172.54C678.795 172.82 678.882 173.137 678.882 173.49C678.882 173.903 678.762 174.26 678.522 174.56C678.289 174.86 677.982 175.053 677.602 175.14V175.19C678.035 175.297 678.379 175.507 678.632 175.82C678.885 176.133 679.012 176.543 679.012 177.05C679.012 177.43 678.925 177.773 678.752 178.08C678.579 178.38 678.319 178.617 677.972 178.79C677.625 178.963 677.209 179.05 676.722 179.05C676.015 179.05 675.435 178.867 674.982 178.5C674.529 178.127 674.275 177.6 674.222 176.92H675.102C675.149 177.32 675.312 177.647 675.592 177.9C675.872 178.153 676.245 178.28 676.712 178.28C677.179 178.28 677.532 178.16 677.772 177.92C678.019 177.673 678.142 177.357 678.142 176.97C678.142 176.47 677.975 176.11 677.642 175.89C677.309 175.67 676.805 175.56 676.132 175.56H675.902V174.8H676.142C676.755 174.793 677.219 174.693 677.532 174.5C677.845 174.3 678.002 173.993 678.002 173.58C678.002 173.227 677.885 172.943 677.652 172.73C677.425 172.517 677.099 172.41 676.672 172.41C676.259 172.41 675.925 172.517 675.672 172.73C675.419 172.943 675.269 173.23 675.222 173.59H674.332ZM680.341 175.31C680.341 174.163 680.527 173.27 680.901 172.63C681.274 171.983 681.927 171.66 682.861 171.66C683.787 171.66 684.437 171.983 684.811 172.63C685.184 173.27 685.371 174.163 685.371 175.31C685.371 176.477 685.184 177.383 684.811 178.03C684.437 178.677 683.787 179 682.861 179C681.927 179 681.274 178.677 680.901 178.03C680.527 177.383 680.341 176.477 680.341 175.31ZM684.471 175.31C684.471 174.73 684.431 174.24 684.351 173.84C684.277 173.433 684.121 173.107 683.881 172.86C683.647 172.613 683.307 172.49 682.861 172.49C682.407 172.49 682.061 172.613 681.821 172.86C681.587 173.107 681.431 173.433 681.351 173.84C681.277 174.24 681.241 174.73 681.241 175.31C681.241 175.91 681.277 176.413 681.351 176.82C681.431 177.227 681.587 177.553 681.821 177.8C682.061 178.047 682.407 178.17 682.861 178.17C683.307 178.17 683.647 178.047 683.881 177.8C684.121 177.553 684.277 177.227 684.351 176.82C684.431 176.413 684.471 175.91 684.471 175.31Z" fill="#9FA2B4"/>
<path d="M673.732 121.39V120.7L677.242 115.84H678.332V120.6H679.332V121.39H678.332V123H677.432V121.39H673.732ZM677.472 116.79L674.782 120.6H677.472V116.79ZM680.341 119.31C680.341 118.163 680.527 117.27 680.901 116.63C681.274 115.983 681.927 115.66 682.861 115.66C683.787 115.66 684.437 115.983 684.811 116.63C685.184 117.27 685.371 118.163 685.371 119.31C685.371 120.477 685.184 121.383 684.811 122.03C684.437 122.677 683.787 123 682.861 123C681.927 123 681.274 122.677 680.901 122.03C680.527 121.383 680.341 120.477 680.341 119.31ZM684.471 119.31C684.471 118.73 684.431 118.24 684.351 117.84C684.277 117.433 684.121 117.107 683.881 116.86C683.647 116.613 683.307 116.49 682.861 116.49C682.407 116.49 682.061 116.613 681.821 116.86C681.587 117.107 681.431 117.433 681.351 117.84C681.277 118.24 681.241 118.73 681.241 119.31C681.241 119.91 681.277 120.413 681.351 120.82C681.431 121.227 681.587 121.553 681.821 121.8C682.061 122.047 682.407 122.17 682.861 122.17C683.307 122.17 683.647 122.047 683.881 121.8C684.121 121.553 684.277 121.227 684.351 120.82C684.431 120.413 684.471 119.91 684.471 119.31Z" fill="#9FA2B4"/>
<path d="M678.571 60.56H675.061V62.84C675.215 62.6267 675.441 62.4533 675.741 62.32C676.041 62.18 676.365 62.11 676.711 62.11C677.265 62.11 677.715 62.2267 678.061 62.46C678.408 62.6867 678.655 62.9833 678.801 63.35C678.955 63.71 679.031 64.0933 679.031 64.5C679.031 64.98 678.941 65.41 678.761 65.79C678.581 66.17 678.305 66.47 677.931 66.69C677.565 66.91 677.108 67.02 676.561 67.02C675.861 67.02 675.295 66.84 674.861 66.48C674.428 66.12 674.165 65.64 674.071 65.04H674.961C675.048 65.42 675.231 65.7167 675.511 65.93C675.791 66.1433 676.145 66.25 676.571 66.25C677.098 66.25 677.495 66.0933 677.761 65.78C678.028 65.46 678.161 65.04 678.161 64.52C678.161 64 678.028 63.6 677.761 63.32C677.495 63.0333 677.101 62.89 676.581 62.89C676.228 62.89 675.918 62.9767 675.651 63.15C675.391 63.3167 675.201 63.5467 675.081 63.84H674.221V59.76H678.571V60.56ZM680.341 63.31C680.341 62.1633 680.527 61.27 680.901 60.63C681.274 59.9833 681.927 59.66 682.861 59.66C683.787 59.66 684.437 59.9833 684.811 60.63C685.184 61.27 685.371 62.1633 685.371 63.31C685.371 64.4767 685.184 65.3833 684.811 66.03C684.437 66.6767 683.787 67 682.861 67C681.927 67 681.274 66.6767 680.901 66.03C680.527 65.3833 680.341 64.4767 680.341 63.31ZM684.471 63.31C684.471 62.73 684.431 62.24 684.351 61.84C684.277 61.4333 684.121 61.1067 683.881 60.86C683.647 60.6133 683.307 60.49 682.861 60.49C682.407 60.49 682.061 60.6133 681.821 60.86C681.587 61.1067 681.431 61.4333 681.351 61.84C681.277 62.24 681.241 62.73 681.241 63.31C681.241 63.91 681.277 64.4133 681.351 64.82C681.431 65.2267 681.587 65.5533 681.821 65.8C682.061 66.0467 682.407 66.17 682.861 66.17C683.307 66.17 683.647 66.0467 683.881 65.8C684.121 65.5533 684.277 65.2267 684.351 64.82C684.431 64.4133 684.471 63.91 684.471 63.31Z" fill="#9FA2B4"/>
<path d="M677.923 5.49C677.776 4.75 677.32 4.38 676.553 4.38C675.96 4.38 675.516 4.61 675.223 5.07C674.93 5.52333 674.786 6.27333 674.793 7.32C674.946 6.97333 675.2 6.70333 675.553 6.51C675.913 6.31 676.313 6.21 676.753 6.21C677.44 6.21 677.986 6.42333 678.393 6.85C678.806 7.27667 679.013 7.86667 679.013 8.62C679.013 9.07333 678.923 9.48 678.743 9.84C678.57 10.2 678.303 10.4867 677.943 10.7C677.59 10.9133 677.16 11.02 676.653 11.02C675.966 11.02 675.43 10.8667 675.043 10.56C674.656 10.2533 674.386 9.83 674.233 9.29C674.08 8.75 674.003 8.08333 674.003 7.29C674.003 4.84333 674.856 3.62 676.563 3.62C677.216 3.62 677.73 3.79667 678.103 4.15C678.476 4.50333 678.696 4.95 678.763 5.49H677.923ZM676.563 6.98C676.276 6.98 676.006 7.04 675.753 7.16C675.5 7.27333 675.293 7.45 675.133 7.69C674.98 7.92333 674.903 8.21 674.903 8.55C674.903 9.05667 675.05 9.47 675.343 9.79C675.636 10.1033 676.056 10.26 676.603 10.26C677.07 10.26 677.44 10.1167 677.713 9.83C677.993 9.53667 678.133 9.14333 678.133 8.65C678.133 8.13 678 7.72333 677.733 7.43C677.466 7.13 677.076 6.98 676.563 6.98ZM680.341 7.31C680.341 6.16333 680.527 5.27 680.901 4.63C681.274 3.98333 681.927 3.66 682.861 3.66C683.787 3.66 684.437 3.98333 684.811 4.63C685.184 5.27 685.371 6.16333 685.371 7.31C685.371 8.47667 685.184 9.38333 684.811 10.03C684.437 10.6767 683.787 11 682.861 11C681.927 11 681.274 10.6767 680.901 10.03C680.527 9.38333 680.341 8.47667 680.341 7.31ZM684.471 7.31C684.471 6.73 684.431 6.24 684.351 5.84C684.277 5.43333 684.121 5.10667 683.881 4.86C683.647 4.61333 683.307 4.49 682.861 4.49C682.407 4.49 682.061 4.61333 681.821 4.86C681.587 5.10667 681.431 5.43333 681.351 5.84C681.277 6.24 681.241 6.73 681.241 7.31C681.241 7.91 681.277 8.41333 681.351 8.82C681.431 9.22667 681.587 9.55333 681.821 9.8C682.061 10.0467 682.407 10.17 682.861 10.17C683.307 10.17 683.647 10.0467 683.881 9.8C684.121 9.55333 684.277 9.22667 684.351 8.82C684.431 8.41333 684.471 7.91 684.471 7.31Z" fill="#9FA2B4"/>
<mask id="mask0_6_75" style="mask-type:alpha" maskUnits="userSpaceOnUse" x="0" y="19" width="576" height="336">
<rect y="19" width="576" height="336" fill="#C4C4C4"/>
</mask>
<g mask="url(#mask0_6_75)">
<path opacity="0.1" d="M94.4767 188.886C47.5588 187.226 2.94296 265.21 -9.1315 297.727V400.5H595.719V144C539.744 141.5 522.042 85.1051 479.134 85.1051C436.227 85.1051 397.488 166.745 375.639 209.641C357.7 247.832 334.816 255.996 325.616 255.304C282.838 256.964 250.295 171.589 239.37 128.693C229.711 80.5386 218.836 70.5764 213.496 70.5765C204.538 70.5455 191.072 84.6905 177.273 132.844C163.474 180.998 141.625 194.42 132.425 195.112C119.557 196.08 104.251 188.886 94.4767 188.886Z" fill="url(#paint0_linear_6_75)"/>
<path d="M-8.69121 173.898C10.2823 164.594 24.3921 163.327 35.703 166.494C47.0413 169.669 55.7522 177.346 63.8362 186.331C67.8818 190.828 71.7277 195.601 75.6821 200.294C79.623 204.971 83.6537 209.545 88.0122 213.56C96.7453 221.604 106.847 227.449 120.303 227.449V225.449C107.516 225.449 97.8754 219.926 89.3672 212.089C85.1052 208.163 81.1406 203.668 77.2115 199.006C73.2958 194.359 69.397 189.522 65.3231 184.993C57.1681 175.929 48.1411 167.9 36.2423 164.568C24.3163 161.229 9.68989 162.657 -9.57179 172.102L-8.69121 173.898ZM120.303 227.449C133.622 227.449 142.756 223.968 149.888 218.551C156.975 213.169 162.026 205.91 167.226 198.54C172.45 191.134 177.85 183.572 185.68 177.294C193.489 171.034 203.758 166.021 218.742 163.834L218.453 161.855C203.137 164.09 192.531 169.238 184.429 175.734C176.35 182.211 170.804 189.997 165.591 197.387C160.353 204.813 155.474 211.797 148.678 216.958C141.928 222.086 133.229 225.449 120.303 225.449V227.449ZM218.742 163.834C233.56 161.671 247.057 166.574 259.8 175.276C272.559 183.989 284.478 196.453 296.11 209.277C307.71 222.066 319.041 235.231 330.537 245.176C342.029 255.116 353.862 262 366.516 262V260C354.596 260 343.228 253.509 331.846 243.663C320.468 233.822 309.253 220.79 297.592 207.934C285.963 195.114 273.904 182.486 260.927 173.624C247.934 164.751 233.934 159.595 218.453 161.855L218.742 163.834ZM366.516 262C379.321 262 390.228 252.694 399.597 239.227C408.995 225.72 417.036 207.752 424.05 189.865C427.559 180.914 430.817 171.965 433.862 163.588C436.908 155.204 439.737 147.399 442.396 140.713C445.058 134.017 447.529 128.497 449.85 124.662C451.011 122.743 452.106 121.295 453.133 120.337C454.167 119.373 455.03 119 455.744 119V117C454.311 117 452.982 117.744 451.769 118.875C450.55 120.012 449.343 121.636 448.138 123.627C445.727 127.612 443.206 133.264 440.537 139.974C437.865 146.694 435.025 154.53 431.982 162.905C428.937 171.285 425.686 180.211 422.188 189.135C415.184 206.998 407.211 224.78 397.955 238.085C388.67 251.431 378.284 260 366.516 260V262ZM455.744 119C457.472 119 458.935 119.887 460.283 121.71C461.649 123.557 462.812 126.263 463.895 129.634C464.974 132.992 465.949 136.922 466.976 141.174C468 145.415 469.075 149.967 470.348 154.519C472.891 163.609 476.258 172.831 481.731 179.79C487.243 186.798 494.886 191.5 505.845 191.5V189.5C495.571 189.5 488.482 185.139 483.303 178.554C478.085 171.919 474.802 163.016 472.274 153.981C471.013 149.471 469.948 144.96 468.92 140.705C467.895 136.461 466.905 132.461 465.799 129.022C464.698 125.597 463.457 122.638 461.891 120.521C460.307 118.378 458.311 117 455.744 117V119ZM505.845 191.5C527.446 191.5 544.949 179.325 562.174 167.19C579.501 154.984 596.554 142.816 617.539 141.999L617.461 140.001C595.781 140.844 578.24 153.426 561.023 165.555C543.704 177.755 526.712 189.5 505.845 189.5V191.5Z" fill="#DFE0EB"/>
<path d="M94.0109 188.886L93.9754 189.886C93.9873 189.886 93.9991 189.886 94.011 189.886L94.0109 188.886ZM131.789 195.112L131.864 196.109L131.789 195.112ZM212.496 70.5765L212.492 71.5765L212.496 71.5765L212.496 70.5765ZM238.253 128.693L237.273 128.889C237.276 128.906 237.28 128.922 237.284 128.939L238.253 128.693ZM324.112 255.304L324.187 254.307C324.149 254.304 324.111 254.303 324.073 254.305L324.112 255.304ZM373.909 209.641L373.018 209.189C373.013 209.198 373.008 209.208 373.004 209.217L373.909 209.641ZM-8.19353 298.074C-2.21776 281.908 11.8409 254.376 30.2169 231.11C39.4031 219.479 49.6397 208.951 60.4513 201.441C71.2651 193.929 82.5877 189.481 93.9754 189.886L94.0465 187.887C82.0806 187.462 70.3363 192.139 59.3102 199.798C48.2819 207.459 37.906 218.148 28.6474 229.87C10.134 253.31 -4.02506 281.029 -10.0695 297.381L-8.19353 298.074ZM94.011 189.886C98.7155 189.886 104.788 191.633 111.5 193.332C118.117 195.007 125.276 196.607 131.864 196.109L131.713 194.115C125.491 194.585 118.627 193.073 111.991 191.393C105.449 189.737 99.037 187.886 94.0109 187.886L94.011 189.886ZM131.864 196.109C136.8 195.736 144.751 192.007 153.146 182.436C161.566 172.838 170.498 157.302 177.397 133.119L175.473 132.57C168.635 156.541 159.823 171.792 151.643 181.117C143.439 190.469 135.935 193.796 131.713 194.115L131.864 196.109ZM177.397 133.119C184.253 109.084 191.006 93.6169 197.112 84.1845C203.255 74.6952 208.574 71.5629 212.492 71.5765L212.499 69.5765C207.499 69.5591 201.657 73.4838 195.433 83.0977C189.173 92.7685 182.354 108.451 175.473 132.57L177.397 133.119ZM212.496 71.5765C213.505 71.5765 214.953 72.0521 216.749 73.6355C218.543 75.2177 220.628 77.8589 222.881 82.0502C227.386 90.4343 232.473 104.853 237.273 128.889L239.234 128.497C234.417 104.378 229.283 89.7391 224.642 81.1035C222.322 76.7849 220.103 73.926 218.072 72.1354C216.042 70.3461 214.143 69.5765 212.496 69.5765L212.496 71.5765ZM237.284 128.939C242.735 150.441 253.581 182.597 268.418 209.194C275.835 222.491 284.278 234.449 293.583 242.99C302.888 251.531 313.144 256.732 324.151 256.303L324.073 254.305C313.787 254.706 304.023 249.858 294.936 241.517C285.85 233.177 277.529 221.422 270.164 208.22C255.437 181.82 244.646 149.841 239.222 128.447L237.284 128.939ZM324.036 256.301C333.771 257.036 356.861 248.459 374.815 210.064L373.004 209.217C355.24 247.204 332.769 254.955 324.187 254.307L324.036 256.301ZM374.801 210.093C385.691 188.616 400.735 157.557 418.387 131.853C427.212 119.003 436.658 107.54 446.521 99.299C456.389 91.0533 466.587 86.1051 476.94 86.1051V84.1051C465.935 84.1051 455.294 89.3619 445.238 97.7642C435.178 106.171 425.613 117.799 416.739 130.721C398.992 156.561 383.878 187.77 373.018 209.189L374.801 210.093ZM476.94 86.1051C497.849 86.1051 512.634 99.88 529.438 114.372C546.156 128.79 564.722 143.732 592.955 144.999L593.045 143.001C565.554 141.768 547.447 127.263 530.745 112.858C514.128 98.5277 498.745 84.1051 476.94 84.1051V86.1051Z" fill="#3751FF"/>
<circle opacity="0.16" cx="414" cy="134" r="13" stroke="#3751FF" stroke-width="2"/>
<g filter="url(#filter0_d_6_75)">
<circle cx="414" cy="134" r="7" fill="white"/>
<circle cx="414" cy="134" r="5" stroke="#3751FF" stroke-width="4"/>
</g>
<g filter="url(#filter1_d_6_75)">
<mask id="path-46-outside-1_6_75" maskUnits="userSpaceOnUse" x="381" y="72" width="66" height="38" fill="black">
<rect fill="white" x="381" y="72" width="66" height="38"/>
<path fill-rule="evenodd" clip-rule="evenodd" d="M386 73H442C444.209 73 446 74.7908 446 77V99C446 101.209 444.209 103 442 103L421 103L414.26 108.777C414.111 108.905 413.889 108.905 413.74 108.777L407 103L386 103C383.791 103 382 101.209 382 99V77C382 74.7908 383.791 73 386 73Z"/>
</mask>
<path fill-rule="evenodd" clip-rule="evenodd" d="M386 73H442C444.209 73 446 74.7908 446 77V99C446 101.209 444.209 103 442 103L421 103L414.26 108.777C414.111 108.905 413.889 108.905 413.74 108.777L407 103L386 103C383.791 103 382 101.209 382 99V77C382 74.7908 383.791 73 386 73Z" fill="white"/>
<path d="M442 103L442 103.5H442V103ZM421 103L421 102.5L420.815 102.5L420.675 102.62L421 103ZM414.26 108.777L413.935 108.397L413.935 108.397L414.26 108.777ZM413.74 108.777L414.065 108.397L414.065 108.397L413.74 108.777ZM407 103L407.325 102.62L407.185 102.5L407 102.5L407 103ZM386 103L386 103.5H386L386 103ZM442 72.5H386V73.5H442V72.5ZM446.5 77C446.5 74.5147 444.485 72.5 442 72.5V73.5C443.933 73.5 445.5 75.067 445.5 77H446.5ZM446.5 99V77H445.5V99H446.5ZM442 103.5C444.485 103.5 446.5 101.485 446.5 99H445.5C445.5 100.933 443.933 102.5 442 102.5V103.5ZM421 103.5L442 103.5L442 102.5L421 102.5L421 103.5ZM420.675 102.62L413.935 108.397L414.586 109.156L421.325 103.38L420.675 102.62ZM413.935 108.397C413.972 108.365 414.028 108.365 414.065 108.397L413.414 109.156C413.751 109.445 414.249 109.445 414.586 109.156L413.935 108.397ZM414.065 108.397L407.325 102.62L406.675 103.38L413.414 109.156L414.065 108.397ZM386 103.5L407 103.5L407 102.5L386 102.5L386 103.5ZM381.5 99C381.5 101.485 383.515 103.5 386 103.5V102.5C384.067 102.5 382.5 100.933 382.5 99H381.5ZM381.5 77V99H382.5V77H381.5ZM386 72.5C383.515 72.5 381.5 74.5147 381.5 77H382.5C382.5 75.067 384.067 73.5 386 73.5V72.5Z" fill="#DFE0EB" mask="url(#path-46-outside-1_6_75)"/>
</g>
<path d="M405.737 84.664C405.774 83.6653 406.101 82.8953 406.717 82.354C407.333 81.8126 408.168 81.542 409.223 81.542C409.923 81.542 410.52 81.6633 411.015 81.906C411.519 82.1486 411.897 82.48 412.149 82.9C412.41 83.32 412.541 83.7913 412.541 84.314C412.541 84.93 412.387 85.434 412.079 85.826C411.771 86.2086 411.411 86.47 411.001 86.61V86.666C411.533 86.8433 411.953 87.1373 412.261 87.548C412.569 87.9586 412.723 88.486 412.723 89.13C412.723 89.7086 412.587 90.222 412.317 90.67C412.055 91.1086 411.668 91.454 411.155 91.706C410.651 91.958 410.049 92.084 409.349 92.084C408.229 92.084 407.333 91.8086 406.661 91.258C405.998 90.7073 405.648 89.8766 405.611 88.766H407.935C407.944 89.1766 408.061 89.5033 408.285 89.746C408.509 89.9793 408.835 90.096 409.265 90.096C409.629 90.096 409.909 89.9933 410.105 89.788C410.31 89.5733 410.413 89.2933 410.413 88.948C410.413 88.5 410.268 88.178 409.979 87.982C409.699 87.7766 409.246 87.674 408.621 87.674H408.173V85.728H408.621C409.097 85.728 409.479 85.6486 409.769 85.49C410.067 85.322 410.217 85.028 410.217 84.608C410.217 84.272 410.123 84.0106 409.937 83.824C409.75 83.6373 409.493 83.544 409.167 83.544C408.812 83.544 408.546 83.6513 408.369 83.866C408.201 84.0806 408.103 84.3466 408.075 84.664H405.737ZM416.009 86.512C415.132 86.0453 414.693 85.3126 414.693 84.314C414.693 83.81 414.824 83.3526 415.085 82.942C415.347 82.522 415.743 82.1906 416.275 81.948C416.807 81.696 417.461 81.57 418.235 81.57C419.01 81.57 419.659 81.696 420.181 81.948C420.713 82.1906 421.11 82.522 421.371 82.942C421.633 83.3526 421.763 83.81 421.763 84.314C421.763 84.818 421.642 85.2566 421.399 85.63C421.166 86.0033 420.849 86.2973 420.447 86.512C420.951 86.7546 421.339 87.0906 421.609 87.52C421.88 87.94 422.015 88.4346 422.015 89.004C422.015 89.6666 421.847 90.2406 421.511 90.726C421.175 91.202 420.718 91.566 420.139 91.818C419.57 92.07 418.935 92.196 418.235 92.196C417.535 92.196 416.896 92.07 416.317 91.818C415.748 91.566 415.295 91.202 414.959 90.726C414.623 90.2406 414.455 89.6666 414.455 89.004C414.455 88.4253 414.591 87.926 414.861 87.506C415.132 87.0766 415.515 86.7453 416.009 86.512ZM419.439 84.678C419.439 84.2953 419.327 84.0013 419.103 83.796C418.889 83.5813 418.599 83.474 418.235 83.474C417.871 83.474 417.577 83.5813 417.353 83.796C417.139 84.0106 417.031 84.3093 417.031 84.692C417.031 85.056 417.143 85.3453 417.367 85.56C417.591 85.7653 417.881 85.868 418.235 85.868C418.59 85.868 418.879 85.7606 419.103 85.546C419.327 85.3313 419.439 85.042 419.439 84.678ZM418.235 87.548C417.797 87.548 417.442 87.6693 417.171 87.912C416.901 88.1453 416.765 88.472 416.765 88.892C416.765 89.284 416.896 89.606 417.157 89.858C417.428 90.11 417.787 90.236 418.235 90.236C418.683 90.236 419.033 90.11 419.285 89.858C419.547 89.606 419.677 89.284 419.677 88.892C419.677 88.4813 419.542 88.1546 419.271 87.912C419.01 87.6693 418.665 87.548 418.235 87.548Z" fill="#252733"/>
</g>
</g>
<defs>
<filter id="filter0_d_6_75" x="405" y="126" width="18" height="18" filterUnits="userSpaceOnUse" color-interpolation-filters="sRGB">
<feFlood flood-opacity="0" result="BackgroundImageFix"/>
<feColorMatrix in="SourceAlpha" type="matrix" values="0 0 0 0 0 0 0 0 0 0 0 0 0 0 0 0 0 0 127 0" result="hardAlpha"/>
<feOffset dy="1"/>
<feGaussianBlur stdDeviation="1"/>
<feColorMatrix type="matrix" values="0 0 0 0 0.215686 0 0 0 0 0.317647 0 0 0 0 1 0 0 0 0.2 0"/>
<feBlend mode="normal" in2="BackgroundImageFix" result="effect1_dropShadow_6_75"/>
<feBlend mode="normal" in="SourceGraphic" in2="effect1_dropShadow_6_75" result="shape"/>
</filter>
<filter id="filter1_d_6_75" x="377.5" y="69.5" width="73" height="44.8732" filterUnits="userSpaceOnUse" color-interpolation-filters="sRGB">
<feFlood flood-opacity="0" result="BackgroundImageFix"/>
<feColorMatrix in="SourceAlpha" type="matrix" values="0 0 0 0 0 0 0 0 0 0 0 0 0 0 0 0 0 0 127 0" result="hardAlpha"/>
<feOffset dy="1"/>
<feGaussianBlur stdDeviation="2"/>
<feColorMatrix type="matrix" values="0 0 0 0 0 0 0 0 0 0 0 0 0 0 0 0 0 0 0.08 0"/>
<feBlend mode="normal" in2="BackgroundImageFix" result="effect1_dropShadow_6_75"/>
<feBlend mode="normal" in="SourceGraphic" in2="effect1_dropShadow_6_75" result="shape"/>
</filter>
<linearGradient id="paint0_linear_6_75" x1="-0.3941" y1="244.5" x2="576.103" y2="244.978" gradientUnits="userSpaceOnUse">
<stop stop-color="#3751FF"/>
<stop offset="1" stop-color="#3751FF" stop-opacity="0"/>
</linearGradient>
<clipPath id="clip0_6_75">
<rect width="686" height="380" fill="white"/>
</clipPath>
<clipPath id="clip1_6_75">
<rect width="716" height="13" fill="white" transform="translate(0 367)"/>
</clipPath>
</defs>
</svg>
